<mxfile host="Electron" agent="Mozilla/5.0 (Macintosh; Intel Mac OS X 10_15_7) AppleWebKit/537.36 (KHTML, like Gecko) draw.io/28.0.6 Chrome/138.0.7204.100 Electron/37.2.3 Safari/537.36" version="28.0.6">
  <diagram name="Page-1" id="c4acf3e9-155e-7222-9cf6-157b1a14988f">
    <mxGraphModel dx="325" dy="869" grid="1" gridSize="10" guides="1" tooltips="1" connect="1" arrows="1" fold="1" page="1" pageScale="1" pageWidth="850" pageHeight="1100" background="none" math="0" shadow="0">
      <root>
        <mxCell id="0" />
        <mxCell id="1" parent="0" />
        <mxCell id="IDTium5Lyms5n8rRV8_W-1" value="network_components" style="shape=umlFrame;whiteSpace=wrap;html=1;rounded=0;shadow=0;comic=0;labelBackgroundColor=none;strokeWidth=1;fontFamily=Verdana;fontSize=10;align=center;width=140;height=30;" parent="1" vertex="1">
          <mxGeometry x="850" width="850" height="1100" as="geometry" />
        </mxCell>
        <mxCell id="IDTium5Lyms5n8rRV8_W-6" value="TimeFrame" style="swimlane;fontStyle=1;align=center;verticalAlign=top;childLayout=stackLayout;horizontal=1;startSize=26;horizontalStack=0;resizeParent=1;resizeParentMax=0;resizeLast=0;collapsible=1;marginBottom=0;whiteSpace=wrap;html=1;" parent="1" vertex="1">
          <mxGeometry x="1160" y="610" width="160" height="139" as="geometry" />
        </mxCell>
        <mxCell id="IDTium5Lyms5n8rRV8_W-7" value="# state" style="text;strokeColor=none;fillColor=none;align=left;verticalAlign=top;spacingLeft=4;spacingRight=4;overflow=hidden;rotatable=0;points=[[0,0.5],[1,0.5]];portConstraint=eastwest;whiteSpace=wrap;html=1;" parent="IDTium5Lyms5n8rRV8_W-6" vertex="1">
          <mxGeometry y="26" width="160" height="26" as="geometry" />
        </mxCell>
        <mxCell id="IDTium5Lyms5n8rRV8_W-13" value="# time_point" style="text;strokeColor=none;fillColor=none;align=left;verticalAlign=top;spacingLeft=4;spacingRight=4;overflow=hidden;rotatable=0;points=[[0,0.5],[1,0.5]];portConstraint=eastwest;whiteSpace=wrap;html=1;" parent="IDTium5Lyms5n8rRV8_W-6" vertex="1">
          <mxGeometry y="52" width="160" height="26" as="geometry" />
        </mxCell>
        <mxCell id="IDTium5Lyms5n8rRV8_W-8" value="" style="line;strokeWidth=1;fillColor=none;align=left;verticalAlign=middle;spacingTop=-1;spacingLeft=3;spacingRight=3;rotatable=0;labelPosition=right;points=[];portConstraint=eastwest;strokeColor=inherit;" parent="IDTium5Lyms5n8rRV8_W-6" vertex="1">
          <mxGeometry y="78" width="160" height="8" as="geometry" />
        </mxCell>
        <mxCell id="IDTium5Lyms5n8rRV8_W-30" value="# init(self, state, time_point)" style="text;strokeColor=none;fillColor=none;align=left;verticalAlign=top;spacingLeft=4;spacingRight=4;overflow=hidden;rotatable=0;points=[[0,0.5],[1,0.5]];portConstraint=eastwest;whiteSpace=wrap;html=1;" parent="IDTium5Lyms5n8rRV8_W-6" vertex="1">
          <mxGeometry y="86" width="160" height="27" as="geometry" />
        </mxCell>
        <mxCell id="ki4sXnoxKFmeVx5Fcc71-4" value="# repr(self)" style="text;strokeColor=none;fillColor=none;align=left;verticalAlign=top;spacingLeft=4;spacingRight=4;overflow=hidden;rotatable=0;points=[[0,0.5],[1,0.5]];portConstraint=eastwest;whiteSpace=wrap;html=1;" parent="IDTium5Lyms5n8rRV8_W-6" vertex="1">
          <mxGeometry y="113" width="160" height="26" as="geometry" />
        </mxCell>
        <mxCell id="IDTium5Lyms5n8rRV8_W-18" value="TimeFrameAccumulator" style="swimlane;fontStyle=1;align=center;verticalAlign=top;childLayout=stackLayout;horizontal=1;startSize=26;horizontalStack=0;resizeParent=1;resizeParentMax=0;resizeLast=0;collapsible=1;marginBottom=0;whiteSpace=wrap;html=1;" parent="1" vertex="1">
          <mxGeometry x="1160" y="320" width="190" height="256" as="geometry" />
        </mxCell>
        <mxCell id="IDTium5Lyms5n8rRV8_W-19" value="# time_frame" style="text;strokeColor=none;fillColor=none;align=left;verticalAlign=top;spacingLeft=4;spacingRight=4;overflow=hidden;rotatable=0;points=[[0,0.5],[1,0.5]];portConstraint=eastwest;whiteSpace=wrap;html=1;" parent="IDTium5Lyms5n8rRV8_W-18" vertex="1">
          <mxGeometry y="26" width="190" height="26" as="geometry" />
        </mxCell>
        <mxCell id="ki4sXnoxKFmeVx5Fcc71-1" value="&lt;span style=&quot;background-color: transparent; color: light-dark(rgb(0, 0, 0), rgb(255, 255, 255));&quot;&gt;# initial_time_frame&lt;/span&gt;" style="text;strokeColor=none;fillColor=none;align=left;verticalAlign=top;spacingLeft=4;spacingRight=4;overflow=hidden;rotatable=0;points=[[0,0.5],[1,0.5]];portConstraint=eastwest;whiteSpace=wrap;html=1;" parent="IDTium5Lyms5n8rRV8_W-18" vertex="1">
          <mxGeometry y="52" width="190" height="26" as="geometry" />
        </mxCell>
        <mxCell id="YbZB8Io7F5tcArSh3kx7-1" value="# decay_rate" style="text;strokeColor=none;fillColor=none;align=left;verticalAlign=top;spacingLeft=4;spacingRight=4;overflow=hidden;rotatable=0;points=[[0,0.5],[1,0.5]];portConstraint=eastwest;whiteSpace=wrap;html=1;" parent="IDTium5Lyms5n8rRV8_W-18" vertex="1">
          <mxGeometry y="78" width="190" height="26" as="geometry" />
        </mxCell>
        <mxCell id="IDTium5Lyms5n8rRV8_W-24" value="" style="line;strokeWidth=1;fillColor=none;align=left;verticalAlign=middle;spacingTop=-1;spacingLeft=3;spacingRight=3;rotatable=0;labelPosition=right;points=[];portConstraint=eastwest;strokeColor=inherit;" parent="IDTium5Lyms5n8rRV8_W-18" vertex="1">
          <mxGeometry y="104" width="190" height="8" as="geometry" />
        </mxCell>
        <mxCell id="IDTium5Lyms5n8rRV8_W-25" value="# init(self, initial_time_frame,&lt;br&gt;&amp;nbsp; &amp;nbsp;decay_rate)" style="text;strokeColor=none;fillColor=none;align=left;verticalAlign=top;spacingLeft=4;spacingRight=4;overflow=hidden;rotatable=0;points=[[0,0.5],[1,0.5]];portConstraint=eastwest;whiteSpace=wrap;html=1;" parent="IDTium5Lyms5n8rRV8_W-18" vertex="1">
          <mxGeometry y="112" width="190" height="40" as="geometry" />
        </mxCell>
        <mxCell id="IDTium5Lyms5n8rRV8_W-31" value="# time_frame(self, current_time)" style="text;strokeColor=none;fillColor=none;align=left;verticalAlign=top;spacingLeft=4;spacingRight=4;overflow=hidden;rotatable=0;points=[[0,0.5],[1,0.5]];portConstraint=eastwest;whiteSpace=wrap;html=1;" parent="IDTium5Lyms5n8rRV8_W-18" vertex="1">
          <mxGeometry y="152" width="190" height="26" as="geometry" />
        </mxCell>
        <mxCell id="IDTium5Lyms5n8rRV8_W-34" value="# accumulate(self, time_frame)" style="text;strokeColor=none;fillColor=none;align=left;verticalAlign=top;spacingLeft=4;spacingRight=4;overflow=hidden;rotatable=0;points=[[0,0.5],[1,0.5]];portConstraint=eastwest;whiteSpace=wrap;html=1;" parent="IDTium5Lyms5n8rRV8_W-18" vertex="1">
          <mxGeometry y="178" width="190" height="26" as="geometry" />
        </mxCell>
        <mxCell id="YbZB8Io7F5tcArSh3kx7-3" value="# reset(self,&amp;nbsp;initial_time_frame)" style="text;strokeColor=none;fillColor=none;align=left;verticalAlign=top;spacingLeft=4;spacingRight=4;overflow=hidden;rotatable=0;points=[[0,0.5],[1,0.5]];portConstraint=eastwest;whiteSpace=wrap;html=1;" parent="IDTium5Lyms5n8rRV8_W-18" vertex="1">
          <mxGeometry y="204" width="190" height="26" as="geometry" />
        </mxCell>
        <mxCell id="ki4sXnoxKFmeVx5Fcc71-6" value="# repr(self)" style="text;strokeColor=none;fillColor=none;align=left;verticalAlign=top;spacingLeft=4;spacingRight=4;overflow=hidden;rotatable=0;points=[[0,0.5],[1,0.5]];portConstraint=eastwest;whiteSpace=wrap;html=1;" parent="IDTium5Lyms5n8rRV8_W-18" vertex="1">
          <mxGeometry y="230" width="190" height="26" as="geometry" />
        </mxCell>
        <mxCell id="IDTium5Lyms5n8rRV8_W-51" value="Area" style="swimlane;fontStyle=1;align=center;verticalAlign=top;childLayout=stackLayout;horizontal=1;startSize=26;horizontalStack=0;resizeParent=1;resizeParentMax=0;resizeLast=0;collapsible=1;marginBottom=0;whiteSpace=wrap;html=1;" parent="1" vertex="1">
          <mxGeometry x="1430" y="40" width="240" height="458" as="geometry" />
        </mxCell>
        <mxCell id="IDTium5Lyms5n8rRV8_W-53" value="# index" style="text;strokeColor=none;fillColor=none;align=left;verticalAlign=top;spacingLeft=4;spacingRight=4;overflow=hidden;rotatable=0;points=[[0,0.5],[1,0.5]];portConstraint=eastwest;whiteSpace=wrap;html=1;" parent="IDTium5Lyms5n8rRV8_W-51" vertex="1">
          <mxGeometry y="26" width="240" height="26" as="geometry" />
        </mxCell>
        <mxCell id="ki4sXnoxKFmeVx5Fcc71-12" value="# input_connections" style="text;strokeColor=none;fillColor=none;align=left;verticalAlign=top;spacingLeft=4;spacingRight=4;overflow=hidden;rotatable=0;points=[[0,0.5],[1,0.5]];portConstraint=eastwest;whiteSpace=wrap;html=1;" parent="IDTium5Lyms5n8rRV8_W-51" vertex="1">
          <mxGeometry y="52" width="240" height="28" as="geometry" />
        </mxCell>
        <mxCell id="IDTium5Lyms5n8rRV8_W-64" value="# output_connections" style="text;strokeColor=none;fillColor=none;align=left;verticalAlign=top;spacingLeft=4;spacingRight=4;overflow=hidden;rotatable=0;points=[[0,0.5],[1,0.5]];portConstraint=eastwest;whiteSpace=wrap;html=1;" parent="IDTium5Lyms5n8rRV8_W-51" vertex="1">
          <mxGeometry y="80" width="240" height="26" as="geometry" />
        </mxCell>
        <mxCell id="IDTium5Lyms5n8rRV8_W-54" value="# output_time_frame_accumulator" style="text;strokeColor=none;fillColor=none;align=left;verticalAlign=top;spacingLeft=4;spacingRight=4;overflow=hidden;rotatable=0;points=[[0,0.5],[1,0.5]];portConstraint=eastwest;whiteSpace=wrap;html=1;" parent="IDTium5Lyms5n8rRV8_W-51" vertex="1">
          <mxGeometry y="106" width="240" height="22" as="geometry" />
        </mxCell>
        <mxCell id="tFrmn9jDISGJBzNkbP5d-15" value="# state_merge_strategy" style="text;strokeColor=none;fillColor=none;align=left;verticalAlign=top;spacingLeft=4;spacingRight=4;overflow=hidden;rotatable=0;points=[[0,0.5],[1,0.5]];portConstraint=eastwest;whiteSpace=wrap;html=1;" vertex="1" parent="IDTium5Lyms5n8rRV8_W-51">
          <mxGeometry y="128" width="240" height="24" as="geometry" />
        </mxCell>
        <mxCell id="IDTium5Lyms5n8rRV8_W-89" value="# transformation" style="text;strokeColor=none;fillColor=none;align=left;verticalAlign=top;spacingLeft=4;spacingRight=4;overflow=hidden;rotatable=0;points=[[0,0.5],[1,0.5]];portConstraint=eastwest;whiteSpace=wrap;html=1;" parent="IDTium5Lyms5n8rRV8_W-51" vertex="1">
          <mxGeometry y="152" width="240" height="24" as="geometry" />
        </mxCell>
        <mxCell id="YbZB8Io7F5tcArSh3kx7-8" value="# update_rate" style="text;strokeColor=none;fillColor=none;align=left;verticalAlign=top;spacingLeft=4;spacingRight=4;overflow=hidden;rotatable=0;points=[[0,0.5],[1,0.5]];portConstraint=eastwest;whiteSpace=wrap;html=1;" parent="IDTium5Lyms5n8rRV8_W-51" vertex="1">
          <mxGeometry y="176" width="240" height="24" as="geometry" />
        </mxCell>
        <mxCell id="YbZB8Io7F5tcArSh3kx7-9" value="# update_count" style="text;strokeColor=none;fillColor=none;align=left;verticalAlign=top;spacingLeft=4;spacingRight=4;overflow=hidden;rotatable=0;points=[[0,0.5],[1,0.5]];portConstraint=eastwest;whiteSpace=wrap;html=1;" parent="IDTium5Lyms5n8rRV8_W-51" vertex="1">
          <mxGeometry y="200" width="240" height="24" as="geometry" />
        </mxCell>
        <mxCell id="Oy4GYiVqKVwfUbI37ljd-3" value="# input_states" style="text;strokeColor=none;fillColor=none;align=left;verticalAlign=top;spacingLeft=4;spacingRight=4;overflow=hidden;rotatable=0;points=[[0,0.5],[1,0.5]];portConstraint=eastwest;whiteSpace=wrap;html=1;" parent="IDTium5Lyms5n8rRV8_W-51" vertex="1">
          <mxGeometry y="224" width="240" height="24" as="geometry" />
        </mxCell>
        <mxCell id="IDTium5Lyms5n8rRV8_W-56" value="" style="line;strokeWidth=1;fillColor=none;align=left;verticalAlign=middle;spacingTop=-1;spacingLeft=3;spacingRight=3;rotatable=0;labelPosition=right;points=[];portConstraint=eastwest;strokeColor=inherit;" parent="IDTium5Lyms5n8rRV8_W-51" vertex="1">
          <mxGeometry y="248" width="240" height="8" as="geometry" />
        </mxCell>
        <mxCell id="IDTium5Lyms5n8rRV8_W-57" value="# init(self,&amp;nbsp;&lt;span style=&quot;background-color: transparent; color: light-dark(rgb(0, 0, 0), rgb(255, 255, 255));&quot;&gt;index,&amp;nbsp;&lt;/span&gt;&lt;div&gt;&lt;span style=&quot;background-color: transparent; color: light-dark(rgb(0, 0, 0), rgb(255, 255, 255));&quot;&gt;&amp;nbsp; &amp;nbsp;output_time_frame_accumulator,&lt;/span&gt;&lt;div&gt;&amp;nbsp; &amp;nbsp;input_connections, output_connections,&lt;br&gt;&amp;nbsp; &amp;nbsp;transformation, update_rate,&amp;nbsp;&lt;/div&gt;&lt;div&gt;&lt;span style=&quot;background-color: transparent; color: light-dark(rgb(0, 0, 0), rgb(255, 255, 255));&quot;&gt;&amp;nbsp; &amp;nbsp;state_merge_strategy)&lt;/span&gt;&lt;/div&gt;&lt;/div&gt;" style="text;strokeColor=none;fillColor=none;align=left;verticalAlign=top;spacingLeft=4;spacingRight=4;overflow=hidden;rotatable=0;points=[[0,0.5],[1,0.5]];portConstraint=eastwest;whiteSpace=wrap;html=1;" parent="IDTium5Lyms5n8rRV8_W-51" vertex="1">
          <mxGeometry y="256" width="240" height="80" as="geometry" />
        </mxCell>
        <mxCell id="YbZB8Io7F5tcArSh3kx7-14" value="# collect_inputs(self, current_time)" style="text;strokeColor=none;fillColor=none;align=left;verticalAlign=top;spacingLeft=4;spacingRight=4;overflow=hidden;rotatable=0;points=[[0,0.5],[1,0.5]];portConstraint=eastwest;whiteSpace=wrap;html=1;" parent="IDTium5Lyms5n8rRV8_W-51" vertex="1">
          <mxGeometry y="336" width="240" height="24" as="geometry" />
        </mxCell>
        <mxCell id="Oy4GYiVqKVwfUbI37ljd-2" value="# forward(self)" style="text;strokeColor=none;fillColor=none;align=left;verticalAlign=top;spacingLeft=4;spacingRight=4;overflow=hidden;rotatable=0;points=[[0,0.5],[1,0.5]];portConstraint=eastwest;whiteSpace=wrap;html=1;" parent="IDTium5Lyms5n8rRV8_W-51" vertex="1">
          <mxGeometry y="360" width="240" height="24" as="geometry" />
        </mxCell>
        <mxCell id="ki4sXnoxKFmeVx5Fcc71-13" value="# reset(self)" style="text;strokeColor=none;fillColor=none;align=left;verticalAlign=top;spacingLeft=4;spacingRight=4;overflow=hidden;rotatable=0;points=[[0,0.5],[1,0.5]];portConstraint=eastwest;whiteSpace=wrap;html=1;" parent="IDTium5Lyms5n8rRV8_W-51" vertex="1">
          <mxGeometry y="384" width="240" height="24" as="geometry" />
        </mxCell>
        <mxCell id="tFrmn9jDISGJBzNkbP5d-1" value="# add_state_subscriber(self, subscriber)" style="text;strokeColor=none;fillColor=none;align=left;verticalAlign=top;spacingLeft=4;spacingRight=4;overflow=hidden;rotatable=0;points=[[0,0.5],[1,0.5]];portConstraint=eastwest;whiteSpace=wrap;html=1;" vertex="1" parent="IDTium5Lyms5n8rRV8_W-51">
          <mxGeometry y="408" width="240" height="24" as="geometry" />
        </mxCell>
        <mxCell id="ki4sXnoxKFmeVx5Fcc71-16" value="# repr(self)" style="text;strokeColor=none;fillColor=none;align=left;verticalAlign=top;spacingLeft=4;spacingRight=4;overflow=hidden;rotatable=0;points=[[0,0.5],[1,0.5]];portConstraint=eastwest;whiteSpace=wrap;html=1;" parent="IDTium5Lyms5n8rRV8_W-51" vertex="1">
          <mxGeometry y="432" width="240" height="26" as="geometry" />
        </mxCell>
        <mxCell id="IDTium5Lyms5n8rRV8_W-71" value="Connection" style="swimlane;fontStyle=1;align=center;verticalAlign=top;childLayout=stackLayout;horizontal=1;startSize=26;horizontalStack=0;resizeParent=1;resizeParentMax=0;resizeLast=0;collapsible=1;marginBottom=0;whiteSpace=wrap;html=1;" parent="1" vertex="1">
          <mxGeometry x="1160" y="40" width="200" height="254" as="geometry" />
        </mxCell>
        <mxCell id="ki4sXnoxKFmeVx5Fcc71-18" value="# index" style="text;strokeColor=none;fillColor=none;align=left;verticalAlign=top;spacingLeft=4;spacingRight=4;overflow=hidden;rotatable=0;points=[[0,0.5],[1,0.5]];portConstraint=eastwest;whiteSpace=wrap;html=1;" parent="IDTium5Lyms5n8rRV8_W-71" vertex="1">
          <mxGeometry y="26" width="200" height="24" as="geometry" />
        </mxCell>
        <mxCell id="ki4sXnoxKFmeVx5Fcc71-2" value="# from_area_index" style="text;strokeColor=none;fillColor=none;align=left;verticalAlign=top;spacingLeft=4;spacingRight=4;overflow=hidden;rotatable=0;points=[[0,0.5],[1,0.5]];portConstraint=eastwest;whiteSpace=wrap;html=1;" parent="IDTium5Lyms5n8rRV8_W-71" vertex="1">
          <mxGeometry y="50" width="200" height="24" as="geometry" />
        </mxCell>
        <mxCell id="ki4sXnoxKFmeVx5Fcc71-7" value="# to_area_index" style="text;strokeColor=none;fillColor=none;align=left;verticalAlign=top;spacingLeft=4;spacingRight=4;overflow=hidden;rotatable=0;points=[[0,0.5],[1,0.5]];portConstraint=eastwest;whiteSpace=wrap;html=1;" parent="IDTium5Lyms5n8rRV8_W-71" vertex="1">
          <mxGeometry y="74" width="200" height="24" as="geometry" />
        </mxCell>
        <mxCell id="YbZB8Io7F5tcArSh3kx7-4" value="&lt;span style=&quot;background-color: transparent; color: light-dark(rgb(0, 0, 0), rgb(255, 255, 255));&quot;&gt;# input_time_frame_accumulator&lt;/span&gt;" style="text;strokeColor=none;fillColor=none;align=left;verticalAlign=top;spacingLeft=4;spacingRight=4;overflow=hidden;rotatable=0;points=[[0,0.5],[1,0.5]];portConstraint=eastwest;whiteSpace=wrap;html=1;" parent="IDTium5Lyms5n8rRV8_W-71" vertex="1">
          <mxGeometry y="98" width="200" height="23" as="geometry" />
        </mxCell>
        <mxCell id="IDTium5Lyms5n8rRV8_W-77" value="# transformation" style="text;strokeColor=none;fillColor=none;align=left;verticalAlign=top;spacingLeft=4;spacingRight=4;overflow=hidden;rotatable=0;points=[[0,0.5],[1,0.5]];portConstraint=eastwest;whiteSpace=wrap;html=1;" parent="IDTium5Lyms5n8rRV8_W-71" vertex="1">
          <mxGeometry y="121" width="200" height="24" as="geometry" />
        </mxCell>
        <mxCell id="IDTium5Lyms5n8rRV8_W-78" value="" style="line;strokeWidth=1;fillColor=none;align=left;verticalAlign=middle;spacingTop=-1;spacingLeft=3;spacingRight=3;rotatable=0;labelPosition=right;points=[];portConstraint=eastwest;strokeColor=inherit;" parent="IDTium5Lyms5n8rRV8_W-71" vertex="1">
          <mxGeometry y="145" width="200" height="8" as="geometry" />
        </mxCell>
        <mxCell id="IDTium5Lyms5n8rRV8_W-79" value="# init(self, index, &lt;br&gt;&amp;nbsp; &amp;nbsp;input_time_frame_accumulator,&lt;br&gt;&amp;nbsp; &amp;nbsp;transformation)" style="text;strokeColor=none;fillColor=none;align=left;verticalAlign=top;spacingLeft=4;spacingRight=4;overflow=hidden;rotatable=0;points=[[0,0.5],[1,0.5]];portConstraint=eastwest;whiteSpace=wrap;html=1;" parent="IDTium5Lyms5n8rRV8_W-71" vertex="1">
          <mxGeometry y="153" width="200" height="50" as="geometry" />
        </mxCell>
        <mxCell id="IDTium5Lyms5n8rRV8_W-84" value="# forward(self, current_time)" style="text;strokeColor=none;fillColor=none;align=left;verticalAlign=top;spacingLeft=4;spacingRight=4;overflow=hidden;rotatable=0;points=[[0,0.5],[1,0.5]];portConstraint=eastwest;whiteSpace=wrap;html=1;" parent="IDTium5Lyms5n8rRV8_W-71" vertex="1">
          <mxGeometry y="203" width="200" height="25" as="geometry" />
        </mxCell>
        <mxCell id="ki4sXnoxKFmeVx5Fcc71-5" value="# repr(self)" style="text;strokeColor=none;fillColor=none;align=left;verticalAlign=top;spacingLeft=4;spacingRight=4;overflow=hidden;rotatable=0;points=[[0,0.5],[1,0.5]];portConstraint=eastwest;whiteSpace=wrap;html=1;" parent="IDTium5Lyms5n8rRV8_W-71" vertex="1">
          <mxGeometry y="228" width="200" height="26" as="geometry" />
        </mxCell>
        <mxCell id="IDTium5Lyms5n8rRV8_W-93" value="BriANN" style="swimlane;fontStyle=1;align=center;verticalAlign=top;childLayout=stackLayout;horizontal=1;startSize=26;horizontalStack=0;resizeParent=1;resizeParentMax=0;resizeLast=0;collapsible=1;marginBottom=0;whiteSpace=wrap;html=1;" parent="1" vertex="1">
          <mxGeometry x="880" y="60" width="230" height="443" as="geometry" />
        </mxCell>
        <mxCell id="IDTium5Lyms5n8rRV8_W-94" value="# areas" style="text;strokeColor=none;fillColor=none;align=left;verticalAlign=top;spacingLeft=4;spacingRight=4;overflow=hidden;rotatable=0;points=[[0,0.5],[1,0.5]];portConstraint=eastwest;whiteSpace=wrap;html=1;" parent="IDTium5Lyms5n8rRV8_W-93" vertex="1">
          <mxGeometry y="26" width="230" height="24" as="geometry" />
        </mxCell>
        <mxCell id="ki4sXnoxKFmeVx5Fcc71-60" value="# source_areas" style="text;strokeColor=none;fillColor=none;align=left;verticalAlign=top;spacingLeft=4;spacingRight=4;overflow=hidden;rotatable=0;points=[[0,0.5],[1,0.5]];portConstraint=eastwest;whiteSpace=wrap;html=1;" parent="IDTium5Lyms5n8rRV8_W-93" vertex="1">
          <mxGeometry y="50" width="230" height="24" as="geometry" />
        </mxCell>
        <mxCell id="ki4sXnoxKFmeVx5Fcc71-61" value="# target_areas" style="text;strokeColor=none;fillColor=none;align=left;verticalAlign=top;spacingLeft=4;spacingRight=4;overflow=hidden;rotatable=0;points=[[0,0.5],[1,0.5]];portConstraint=eastwest;whiteSpace=wrap;html=1;" parent="IDTium5Lyms5n8rRV8_W-93" vertex="1">
          <mxGeometry y="74" width="230" height="24" as="geometry" />
        </mxCell>
        <mxCell id="IDTium5Lyms5n8rRV8_W-95" value="# connections_from" style="text;strokeColor=none;fillColor=none;align=left;verticalAlign=top;spacingLeft=4;spacingRight=4;overflow=hidden;rotatable=0;points=[[0,0.5],[1,0.5]];portConstraint=eastwest;whiteSpace=wrap;html=1;" parent="IDTium5Lyms5n8rRV8_W-93" vertex="1">
          <mxGeometry y="98" width="230" height="26" as="geometry" />
        </mxCell>
        <mxCell id="YbZB8Io7F5tcArSh3kx7-31" value="# connections_to" style="text;strokeColor=none;fillColor=none;align=left;verticalAlign=top;spacingLeft=4;spacingRight=4;overflow=hidden;rotatable=0;points=[[0,0.5],[1,0.5]];portConstraint=eastwest;whiteSpace=wrap;html=1;" parent="IDTium5Lyms5n8rRV8_W-93" vertex="1">
          <mxGeometry y="124" width="230" height="26" as="geometry" />
        </mxCell>
        <mxCell id="YbZB8Io7F5tcArSh3kx7-32" value="# current_simulation_time" style="text;strokeColor=none;fillColor=none;align=left;verticalAlign=top;spacingLeft=4;spacingRight=4;overflow=hidden;rotatable=0;points=[[0,0.5],[1,0.5]];portConstraint=eastwest;whiteSpace=wrap;html=1;" parent="IDTium5Lyms5n8rRV8_W-93" vertex="1">
          <mxGeometry y="150" width="230" height="26" as="geometry" />
        </mxCell>
        <mxCell id="IDTium5Lyms5n8rRV8_W-98" value="" style="line;strokeWidth=1;fillColor=none;align=left;verticalAlign=middle;spacingTop=-1;spacingLeft=3;spacingRight=3;rotatable=0;labelPosition=right;points=[];portConstraint=eastwest;strokeColor=inherit;" parent="IDTium5Lyms5n8rRV8_W-93" vertex="1">
          <mxGeometry y="176" width="230" height="8" as="geometry" />
        </mxCell>
        <mxCell id="IDTium5Lyms5n8rRV8_W-99" value="# init(self, configuration)" style="text;strokeColor=none;fillColor=none;align=left;verticalAlign=top;spacingLeft=4;spacingRight=4;overflow=hidden;rotatable=0;points=[[0,0.5],[1,0.5]];portConstraint=eastwest;whiteSpace=wrap;html=1;" parent="IDTium5Lyms5n8rRV8_W-93" vertex="1">
          <mxGeometry y="184" width="230" height="25" as="geometry" />
        </mxCell>
        <mxCell id="tFrmn9jDISGJBzNkbP5d-16" value="# get_area_indices(self)" style="text;strokeColor=none;fillColor=none;align=left;verticalAlign=top;spacingLeft=4;spacingRight=4;overflow=hidden;rotatable=0;points=[[0,0.5],[1,0.5]];portConstraint=eastwest;whiteSpace=wrap;html=1;" vertex="1" parent="IDTium5Lyms5n8rRV8_W-93">
          <mxGeometry y="209" width="230" height="26" as="geometry" />
        </mxCell>
        <mxCell id="tFrmn9jDISGJBzNkbP5d-17" value="# get_area_at_index(self)" style="text;strokeColor=none;fillColor=none;align=left;verticalAlign=top;spacingLeft=4;spacingRight=4;overflow=hidden;rotatable=0;points=[[0,0.5],[1,0.5]];portConstraint=eastwest;whiteSpace=wrap;html=1;" vertex="1" parent="IDTium5Lyms5n8rRV8_W-93">
          <mxGeometry y="235" width="230" height="26" as="geometry" />
        </mxCell>
        <mxCell id="tFrmn9jDISGJBzNkbP5d-18" value="# get_&lt;span style=&quot;background-color: transparent; color: light-dark(rgb(0, 0, 0), rgb(255, 255, 255));&quot;&gt;connections_from(self)&lt;/span&gt;" style="text;strokeColor=none;fillColor=none;align=left;verticalAlign=top;spacingLeft=4;spacingRight=4;overflow=hidden;rotatable=0;points=[[0,0.5],[1,0.5]];portConstraint=eastwest;whiteSpace=wrap;html=1;" vertex="1" parent="IDTium5Lyms5n8rRV8_W-93">
          <mxGeometry y="261" width="230" height="26" as="geometry" />
        </mxCell>
        <mxCell id="tFrmn9jDISGJBzNkbP5d-19" value="# get_&lt;span style=&quot;background-color: transparent; color: light-dark(rgb(0, 0, 0), rgb(255, 255, 255));&quot;&gt;connections_to(self)&lt;/span&gt;" style="text;strokeColor=none;fillColor=none;align=left;verticalAlign=top;spacingLeft=4;spacingRight=4;overflow=hidden;rotatable=0;points=[[0,0.5],[1,0.5]];portConstraint=eastwest;whiteSpace=wrap;html=1;" vertex="1" parent="IDTium5Lyms5n8rRV8_W-93">
          <mxGeometry y="287" width="230" height="26" as="geometry" />
        </mxCell>
        <mxCell id="YbZB8Io7F5tcArSh3kx7-34" value="# load_configuration(self, configuration)" style="text;strokeColor=none;fillColor=none;align=left;verticalAlign=top;spacingLeft=4;spacingRight=4;overflow=hidden;rotatable=0;points=[[0,0.5],[1,0.5]];portConstraint=eastwest;whiteSpace=wrap;html=1;" parent="IDTium5Lyms5n8rRV8_W-93" vertex="1">
          <mxGeometry y="313" width="230" height="26" as="geometry" />
        </mxCell>
        <mxCell id="tFrmn9jDISGJBzNkbP5d-20" value="# get_topology(self, configuration)" style="text;strokeColor=none;fillColor=none;align=left;verticalAlign=top;spacingLeft=4;spacingRight=4;overflow=hidden;rotatable=0;points=[[0,0.5],[1,0.5]];portConstraint=eastwest;whiteSpace=wrap;html=1;" vertex="1" parent="IDTium5Lyms5n8rRV8_W-93">
          <mxGeometry y="339" width="230" height="26" as="geometry" />
        </mxCell>
        <mxCell id="tFrmn9jDISGJBzNkbP5d-21" value="# load_next_stimulus_batch(self)" style="text;strokeColor=none;fillColor=none;align=left;verticalAlign=top;spacingLeft=4;spacingRight=4;overflow=hidden;rotatable=0;points=[[0,0.5],[1,0.5]];portConstraint=eastwest;whiteSpace=wrap;html=1;" vertex="1" parent="IDTium5Lyms5n8rRV8_W-93">
          <mxGeometry y="365" width="230" height="26" as="geometry" />
        </mxCell>
        <mxCell id="YbZB8Io7F5tcArSh3kx7-35" value="# step(self)" style="text;strokeColor=none;fillColor=none;align=left;verticalAlign=top;spacingLeft=4;spacingRight=4;overflow=hidden;rotatable=0;points=[[0,0.5],[1,0.5]];portConstraint=eastwest;whiteSpace=wrap;html=1;" parent="IDTium5Lyms5n8rRV8_W-93" vertex="1">
          <mxGeometry y="391" width="230" height="26" as="geometry" />
        </mxCell>
        <mxCell id="ki4sXnoxKFmeVx5Fcc71-62" value="# repr(self)" style="text;strokeColor=none;fillColor=none;align=left;verticalAlign=top;spacingLeft=4;spacingRight=4;overflow=hidden;rotatable=0;points=[[0,0.5],[1,0.5]];portConstraint=eastwest;whiteSpace=wrap;html=1;" parent="IDTium5Lyms5n8rRV8_W-93" vertex="1">
          <mxGeometry y="417" width="230" height="26" as="geometry" />
        </mxCell>
        <mxCell id="YbZB8Io7F5tcArSh3kx7-15" value="Source" style="swimlane;fontStyle=1;align=center;verticalAlign=top;childLayout=stackLayout;horizontal=1;startSize=26;horizontalStack=0;resizeParent=1;resizeParentMax=0;resizeLast=0;collapsible=1;marginBottom=0;whiteSpace=wrap;html=1;" parent="1" vertex="1">
          <mxGeometry x="1430" y="520" width="210" height="186" as="geometry" />
        </mxCell>
        <mxCell id="_Oxv9JMGdP--2N5utITa-1" value="# data_loader" style="text;strokeColor=none;fillColor=none;align=left;verticalAlign=top;spacingLeft=4;spacingRight=4;overflow=hidden;rotatable=0;points=[[0,0.5],[1,0.5]];portConstraint=eastwest;whiteSpace=wrap;html=1;" parent="YbZB8Io7F5tcArSh3kx7-15" vertex="1">
          <mxGeometry y="26" width="210" height="30" as="geometry" />
        </mxCell>
        <mxCell id="YbZB8Io7F5tcArSh3kx7-24" value="# stimulus_batch" style="text;strokeColor=none;fillColor=none;align=left;verticalAlign=top;spacingLeft=4;spacingRight=4;overflow=hidden;rotatable=0;points=[[0,0.5],[1,0.5]];portConstraint=eastwest;whiteSpace=wrap;html=1;" parent="YbZB8Io7F5tcArSh3kx7-15" vertex="1">
          <mxGeometry y="56" width="210" height="30" as="geometry" />
        </mxCell>
        <mxCell id="YbZB8Io7F5tcArSh3kx7-18" value="" style="line;strokeWidth=1;fillColor=none;align=left;verticalAlign=middle;spacingTop=-1;spacingLeft=3;spacingRight=3;rotatable=0;labelPosition=right;points=[];portConstraint=eastwest;strokeColor=inherit;" parent="YbZB8Io7F5tcArSh3kx7-15" vertex="1">
          <mxGeometry y="86" width="210" height="8" as="geometry" />
        </mxCell>
        <mxCell id="YbZB8Io7F5tcArSh3kx7-19" value="# init(self, index, &lt;br&gt;&amp;nbsp; &amp;nbsp;output_time_frame_accumulator,&lt;br&gt;&amp;nbsp; &amp;nbsp;output_connections, update_rate, &lt;br&gt;&amp;nbsp; &amp;nbsp;data_loader)" style="text;strokeColor=none;fillColor=none;align=left;verticalAlign=top;spacingLeft=4;spacingRight=4;overflow=hidden;rotatable=0;points=[[0,0.5],[1,0.5]];portConstraint=eastwest;whiteSpace=wrap;html=1;" parent="YbZB8Io7F5tcArSh3kx7-15" vertex="1">
          <mxGeometry y="94" width="210" height="66" as="geometry" />
        </mxCell>
        <mxCell id="ki4sXnoxKFmeVx5Fcc71-17" value="# load_next_stimulus_batch(self)" style="text;strokeColor=none;fillColor=none;align=left;verticalAlign=top;spacingLeft=4;spacingRight=4;overflow=hidden;rotatable=0;points=[[0,0.5],[1,0.5]];portConstraint=eastwest;whiteSpace=wrap;html=1;" parent="YbZB8Io7F5tcArSh3kx7-15" vertex="1">
          <mxGeometry y="160" width="210" height="26" as="geometry" />
        </mxCell>
        <mxCell id="YbZB8Io7F5tcArSh3kx7-37" value="StateMergeStrategy" style="swimlane;fontStyle=1;align=center;verticalAlign=top;childLayout=stackLayout;horizontal=1;startSize=26;horizontalStack=0;resizeParent=1;resizeParentMax=0;resizeLast=0;collapsible=1;marginBottom=0;whiteSpace=wrap;html=1;" parent="1" vertex="1">
          <mxGeometry x="1430" y="953" width="200" height="107" as="geometry" />
        </mxCell>
        <mxCell id="YbZB8Io7F5tcArSh3kx7-39" value="" style="line;strokeWidth=1;fillColor=none;align=left;verticalAlign=middle;spacingTop=-1;spacingLeft=3;spacingRight=3;rotatable=0;labelPosition=right;points=[];portConstraint=eastwest;strokeColor=inherit;" parent="YbZB8Io7F5tcArSh3kx7-37" vertex="1">
          <mxGeometry y="26" width="200" height="8" as="geometry" />
        </mxCell>
        <mxCell id="YbZB8Io7F5tcArSh3kx7-40" value="# init(self)" style="text;strokeColor=none;fillColor=none;align=left;verticalAlign=top;spacingLeft=4;spacingRight=4;overflow=hidden;rotatable=0;points=[[0,0.5],[1,0.5]];portConstraint=eastwest;whiteSpace=wrap;html=1;" parent="YbZB8Io7F5tcArSh3kx7-37" vertex="1">
          <mxGeometry y="34" width="200" height="26" as="geometry" />
        </mxCell>
        <mxCell id="YbZB8Io7F5tcArSh3kx7-41" value="# merge(self, states)" style="text;strokeColor=none;fillColor=none;align=left;verticalAlign=top;spacingLeft=4;spacingRight=4;overflow=hidden;rotatable=0;points=[[0,0.5],[1,0.5]];portConstraint=eastwest;whiteSpace=wrap;html=1;" parent="YbZB8Io7F5tcArSh3kx7-37" vertex="1">
          <mxGeometry y="60" width="200" height="23" as="geometry" />
        </mxCell>
        <mxCell id="ki4sXnoxKFmeVx5Fcc71-23" value="# repr(self)" style="text;strokeColor=none;fillColor=none;align=left;verticalAlign=top;spacingLeft=4;spacingRight=4;overflow=hidden;rotatable=0;points=[[0,0.5],[1,0.5]];portConstraint=eastwest;whiteSpace=wrap;html=1;" parent="YbZB8Io7F5tcArSh3kx7-37" vertex="1">
          <mxGeometry y="83" width="200" height="24" as="geometry" />
        </mxCell>
        <mxCell id="ki4sXnoxKFmeVx5Fcc71-26" value="Target" style="swimlane;fontStyle=1;align=center;verticalAlign=top;childLayout=stackLayout;horizontal=1;startSize=26;horizontalStack=0;resizeParent=1;resizeParentMax=0;resizeLast=0;collapsible=1;marginBottom=0;whiteSpace=wrap;html=1;" parent="1" vertex="1">
          <mxGeometry x="1430" y="730" width="230" height="103" as="geometry" />
        </mxCell>
        <mxCell id="ki4sXnoxKFmeVx5Fcc71-31" value="" style="line;strokeWidth=1;fillColor=none;align=left;verticalAlign=middle;spacingTop=-1;spacingLeft=3;spacingRight=3;rotatable=0;labelPosition=right;points=[];portConstraint=eastwest;strokeColor=inherit;" parent="ki4sXnoxKFmeVx5Fcc71-26" vertex="1">
          <mxGeometry y="26" width="230" height="8" as="geometry" />
        </mxCell>
        <mxCell id="ki4sXnoxKFmeVx5Fcc71-40" value="# init(self, index,&lt;br&gt;&amp;nbsp; &amp;nbsp;output_time_frame_accumulator,&lt;br&gt;&amp;nbsp; &amp;nbsp;input_connections, transformation,&lt;br&gt;&amp;nbsp; &amp;nbsp;update_rate, state_merge_strategy)" style="text;strokeColor=none;fillColor=none;align=left;verticalAlign=top;spacingLeft=4;spacingRight=4;overflow=hidden;rotatable=0;points=[[0,0.5],[1,0.5]];portConstraint=eastwest;whiteSpace=wrap;html=1;" parent="ki4sXnoxKFmeVx5Fcc71-26" vertex="1">
          <mxGeometry y="34" width="230" height="69" as="geometry" />
        </mxCell>
        <mxCell id="Oy4GYiVqKVwfUbI37ljd-1" value="This schema provides a list of classes with their corresponding properties and methods. It does not distinguish between private/ internal/ public etc. access rights. It also does not provide extra entries for setter or getters. It also does not indicate default property values or whether arguments are optional. It also does not provide types. It also does not provide any relations between classes." style="shape=note;whiteSpace=wrap;html=1;backgroundOutline=1;darkOpacity=0.05;align=left;" parent="1" vertex="1">
          <mxGeometry x="900" y="870" width="180" height="190" as="geometry" />
        </mxCell>
        <mxCell id="tFrmn9jDISGJBzNkbP5d-2" value="AreaStateSubscriber" style="swimlane;fontStyle=1;align=center;verticalAlign=top;childLayout=stackLayout;horizontal=1;startSize=26;horizontalStack=0;resizeParent=1;resizeParentMax=0;resizeLast=0;collapsible=1;marginBottom=0;whiteSpace=wrap;html=1;" vertex="1" parent="1">
          <mxGeometry x="1430" y="859" width="200" height="74" as="geometry" />
        </mxCell>
        <mxCell id="tFrmn9jDISGJBzNkbP5d-8" value="" style="line;strokeWidth=1;fillColor=none;align=left;verticalAlign=middle;spacingTop=-1;spacingLeft=3;spacingRight=3;rotatable=0;labelPosition=right;points=[];portConstraint=eastwest;strokeColor=inherit;" vertex="1" parent="tFrmn9jDISGJBzNkbP5d-2">
          <mxGeometry y="26" width="200" height="8" as="geometry" />
        </mxCell>
        <mxCell id="tFrmn9jDISGJBzNkbP5d-9" value="# on_state_update(self, area, time_frame)" style="text;strokeColor=none;fillColor=none;align=left;verticalAlign=top;spacingLeft=4;spacingRight=4;overflow=hidden;rotatable=0;points=[[0,0.5],[1,0.5]];portConstraint=eastwest;whiteSpace=wrap;html=1;" vertex="1" parent="tFrmn9jDISGJBzNkbP5d-2">
          <mxGeometry y="34" width="200" height="40" as="geometry" />
        </mxCell>
      </root>
    </mxGraphModel>
  </diagram>
</mxfile>
